# xmcd
#
# Track frame offsets:
#	150
#	13717
#	33980
#	53222
#	71492
#	89265
#	107345
#	124452
#	138155
#	153412
#	168817
#	182385
#	202647
#	221892
#	240162
#	257932
#	276015
#	293125
#	306825
#	322085
#
# Disc length: 4499
#
# Revision: 1
# Processed by: cddbd v1.5.1PL2 Copyright (c) Steve Scherf et al.
# Submitted via: kTunes Pro (development) 1.0patch41.25
#
DISCID=13119114
DTITLE=Various Artist - THM-C0210
DYEAR=2002
DGENRE=Karaoke
TTITLE0=Garth Brooks - Thicker Than Blood (Vocal)
TTITLE1=Montgomery Gentry - My Town (Vocal)
TTITLE2=Trisha Yearwood - I Don't Paint Myself Into Corners (Vocal)
TTITLE3=Tommy Shane Steiner - Tell Me Where It Hurts (Vocal)
TTITLE4=Willie Nelson - Maria (Shut Up And Kiss Me) Vocal
TTITLE5=Alan Jackson - Work In Progress (Vocal)
TTITLE6=Keith Urban - Somebody Like You (Vocal)
TTITLE7=Emerson Drive - Fall Into Me (Vocal)
TTITLE8=Carolyn Dawn Johnson - One Day Closer To You (Vocal)
TTITLE9=Tanya Tucker - A Memory Like I'm Gonna Be (Vocal)
TTITLE10=Garth Brooks - Thicker Than Blood
TTITLE11=Montgomery Gentry - My Town
TTITLE12=Trisha Yearwood - I Don't Paint Myself Into Corners
TTITLE13=Tommy Shane Steiner - Tell Me Where It Hurts
TTITLE14=Willie Nelson - Maria (Shut Up And Kiss Me)
TTITLE15=Alan Jackson - Work In Progress
TTITLE16=Keith Urban - Somebody Like You
TTITLE17=Emerson Lake - Fall Into Me
TTITLE18=Carolyn Dawn Johnson - One Day Closer To You
TTITLE19=Tanya Tucker - A Memory Like I'm Gonna Be
EXTD=
EXTT0=
EXTT1=
EXTT2=
EXTT3=
EXTT4=
EXTT5=
EXTT6=
EXTT7=
EXTT8=
EXTT9=
EXTT10=
EXTT11=
EXTT12=
EXTT13=
EXTT14=
EXTT15=
EXTT16=
EXTT17=
EXTT18=
EXTT19=
PLAYORDER=
